<svg width="100" height="18" viewBox="0 0 100 18" fill="none" xmlns="http://www.w3.org/2000/svg">
<path d="M0.39 14V1.4H2.19V12.434H9.012V14H0.39ZM10.8255 14V4.46H12.5535V14H10.8255ZM11.6895 2.624C11.3535 2.624 11.0715 2.516 10.8435 2.3C10.6275 2.084 10.5195 1.82 10.5195 1.508C10.5195 1.184 10.6275 0.914 10.8435 0.698C11.0715 0.482 11.3535 0.373999 11.6895 0.373999C12.0255 0.373999 12.3015 0.482 12.5175 0.698C12.7455 0.901999 12.8595 1.16 12.8595 1.472C12.8595 1.796 12.7515 2.072 12.5355 2.3C12.3195 2.516 12.0375 2.624 11.6895 2.624ZM20.0288 17.6C19.1528 17.6 18.3008 17.474 17.4728 17.222C16.6568 16.982 15.9908 16.634 15.4748 16.178L16.3028 14.846C16.7468 15.23 17.2928 15.53 17.9408 15.746C18.5888 15.974 19.2668 16.088 19.9748 16.088C21.1028 16.088 21.9308 15.824 22.4588 15.296C22.9868 14.768 23.2508 13.964 23.2508 12.884V10.868L23.4308 8.978L23.3408 7.07V4.46H24.9788V12.704C24.9788 14.384 24.5588 15.62 23.7188 16.412C22.8788 17.204 21.6488 17.6 20.0288 17.6ZM19.8128 13.604C18.8888 13.604 18.0608 13.412 17.3288 13.028C16.6088 12.632 16.0328 12.086 15.6008 11.39C15.1808 10.694 14.9708 9.89 14.9708 8.978C14.9708 8.054 15.1808 7.25 15.6008 6.566C16.0328 5.87 16.6088 5.33 17.3288 4.946C18.0608 4.562 18.8888 4.37 19.8128 4.37C20.6288 4.37 21.3728 4.538 22.0448 4.874C22.7168 5.198 23.2508 5.702 23.6468 6.386C24.0548 7.07 24.2588 7.934 24.2588 8.978C24.2588 10.01 24.0548 10.868 23.6468 11.552C23.2508 12.236 22.7168 12.752 22.0448 13.1C21.3728 13.436 20.6288 13.604 19.8128 13.604ZM20.0108 12.092C20.6468 12.092 21.2108 11.96 21.7028 11.696C22.1948 11.432 22.5788 11.066 22.8548 10.598C23.1428 10.13 23.2868 9.59 23.2868 8.978C23.2868 8.366 23.1428 7.826 22.8548 7.358C22.5788 6.89 22.1948 6.53 21.7028 6.278C21.2108 6.014 20.6468 5.882 20.0108 5.882C19.3748 5.882 18.8048 6.014 18.3008 6.278C17.8088 6.53 17.4188 6.89 17.1308 7.358C16.8548 7.826 16.7168 8.366 16.7168 8.978C16.7168 9.59 16.8548 10.13 17.1308 10.598C17.4188 11.066 17.8088 11.432 18.3008 11.696C18.8048 11.96 19.3748 12.092 20.0108 12.092ZM33.3746 4.37C34.1546 4.37 34.8386 4.52 35.4266 4.82C36.0266 5.12 36.4946 5.576 36.8306 6.188C37.1666 6.8 37.3346 7.574 37.3346 8.51V14H35.6066V8.708C35.6066 7.784 35.3786 7.088 34.9226 6.62C34.4786 6.152 33.8486 5.918 33.0326 5.918C32.4206 5.918 31.8866 6.038 31.4306 6.278C30.9746 6.518 30.6206 6.872 30.3686 7.34C30.1286 7.808 30.0086 8.39 30.0086 9.086V14H28.2806V0.643999H30.0086V7.034L29.6666 6.35C29.9786 5.726 30.4586 5.24 31.1066 4.892C31.7546 4.544 32.5106 4.37 33.3746 4.37ZM43.8085 14.108C42.8485 14.108 42.1045 13.85 41.5765 13.334C41.0485 12.818 40.7845 12.08 40.7845 11.12V2.372H42.5125V11.048C42.5125 11.564 42.6385 11.96 42.8905 12.236C43.1545 12.512 43.5265 12.65 44.0065 12.65C44.5465 12.65 44.9965 12.5 45.3565 12.2L45.8965 13.442C45.6325 13.67 45.3145 13.838 44.9425 13.946C44.5825 14.054 44.2045 14.108 43.8085 14.108ZM39.1645 5.882V4.46H45.2485V5.882H39.1645ZM48.2377 14V1.4H53.8897C55.3417 1.4 56.4577 1.694 57.2377 2.282C58.0177 2.858 58.4077 3.65 58.4077 4.658C58.4077 5.342 58.2517 5.918 57.9397 6.386C57.6397 6.854 57.2317 7.214 56.7157 7.466C56.1997 7.718 55.6417 7.844 55.0417 7.844L55.3657 7.304C56.0857 7.304 56.7217 7.43 57.2737 7.682C57.8257 7.934 58.2637 8.306 58.5877 8.798C58.9117 9.278 59.0737 9.878 59.0737 10.598C59.0737 11.678 58.6657 12.518 57.8497 13.118C57.0457 13.706 55.8457 14 54.2497 14H48.2377ZM50.0377 12.542H54.1777C55.1737 12.542 55.9357 12.374 56.4637 12.038C56.9917 11.702 57.2557 11.174 57.2557 10.454C57.2557 9.722 56.9917 9.188 56.4637 8.852C55.9357 8.516 55.1737 8.348 54.1777 8.348H49.8757V6.89H53.7277C54.6397 6.89 55.3477 6.722 55.8517 6.386C56.3557 6.05 56.6077 5.546 56.6077 4.874C56.6077 4.202 56.3557 3.698 55.8517 3.362C55.3477 3.026 54.6397 2.858 53.7277 2.858H50.0377V12.542ZM65.6947 14.108C64.7347 14.108 63.8827 13.898 63.1387 13.478C62.3947 13.058 61.8067 12.482 61.3747 11.75C60.9427 11.006 60.7267 10.166 60.7267 9.23C60.7267 8.282 60.9427 7.442 61.3747 6.71C61.8067 5.978 62.3947 5.408 63.1387 5C63.8827 4.58 64.7347 4.37 65.6947 4.37C66.6427 4.37 67.4887 4.58 68.2327 5C68.9887 5.408 69.5767 5.978 69.9967 6.71C70.4287 7.43 70.6447 8.27 70.6447 9.23C70.6447 10.178 70.4287 11.018 69.9967 11.75C69.5767 12.482 68.9887 13.058 68.2327 13.478C67.4887 13.898 66.6427 14.108 65.6947 14.108ZM65.6947 12.596C66.3067 12.596 66.8527 12.458 67.3327 12.182C67.8247 11.906 68.2087 11.516 68.4847 11.012C68.7607 10.496 68.8987 9.902 68.8987 9.23C68.8987 8.546 68.7607 7.958 68.4847 7.466C68.2087 6.962 67.8247 6.572 67.3327 6.296C66.8527 6.02 66.3067 5.882 65.6947 5.882C65.0827 5.882 64.5367 6.02 64.0567 6.296C63.5767 6.572 63.1927 6.962 62.9047 7.466C62.6167 7.958 62.4727 8.546 62.4727 9.23C62.4727 9.902 62.6167 10.496 62.9047 11.012C63.1927 11.516 63.5767 11.906 64.0567 12.182C64.5367 12.458 65.0827 12.596 65.6947 12.596ZM78.8686 14V11.984L78.7786 11.606V8.168C78.7786 7.436 78.5626 6.872 78.1306 6.476C77.7106 6.068 77.0746 5.864 76.2226 5.864C75.6586 5.864 75.1066 5.96 74.5666 6.152C74.0266 6.332 73.5706 6.578 73.1986 6.89L72.4786 5.594C72.9706 5.198 73.5586 4.898 74.2426 4.694C74.9386 4.478 75.6646 4.37 76.4206 4.37C77.7286 4.37 78.7366 4.688 79.4446 5.324C80.1526 5.96 80.5066 6.932 80.5066 8.24V14H78.8686ZM75.7366 14.108C75.0286 14.108 74.4046 13.988 73.8646 13.748C73.3366 13.508 72.9286 13.178 72.6406 12.758C72.3526 12.326 72.2086 11.84 72.2086 11.3C72.2086 10.784 72.3286 10.316 72.5686 9.896C72.8206 9.476 73.2226 9.14 73.7746 8.888C74.3386 8.636 75.0946 8.51 76.0426 8.51H79.0666V9.752H76.1146C75.2506 9.752 74.6686 9.896 74.3686 10.184C74.0686 10.472 73.9186 10.82 73.9186 11.228C73.9186 11.696 74.1046 12.074 74.4766 12.362C74.8486 12.638 75.3646 12.776 76.0246 12.776C76.6726 12.776 77.2366 12.632 77.7166 12.344C78.2086 12.056 78.5626 11.636 78.7786 11.084L79.1206 12.272C78.8926 12.836 78.4906 13.286 77.9146 13.622C77.3386 13.946 76.6126 14.108 75.7366 14.108ZM83.7044 14V4.46H85.3604V7.052L85.1984 6.404C85.4624 5.744 85.9064 5.24 86.5304 4.892C87.1544 4.544 87.9224 4.37 88.8344 4.37V6.044C88.7624 6.032 88.6904 6.026 88.6184 6.026C88.5584 6.026 88.4984 6.026 88.4384 6.026C87.5144 6.026 86.7824 6.302 86.2424 6.854C85.7024 7.406 85.4324 8.204 85.4324 9.248V14H83.7044ZM94.8183 14.108C93.8943 14.108 93.0663 13.904 92.3343 13.496C91.6143 13.088 91.0443 12.518 90.6243 11.786C90.2043 11.054 89.9943 10.202 89.9943 9.23C89.9943 8.258 90.2043 7.412 90.6243 6.692C91.0443 5.96 91.6143 5.39 92.3343 4.982C93.0663 4.574 93.8943 4.37 94.8183 4.37C95.6223 4.37 96.3483 4.55 96.9963 4.91C97.6443 5.27 98.1603 5.81 98.5443 6.53C98.9403 7.25 99.1383 8.15 99.1383 9.23C99.1383 10.31 98.9463 11.21 98.5623 11.93C98.1903 12.65 97.6803 13.196 97.0323 13.568C96.3843 13.928 95.6463 14.108 94.8183 14.108ZM94.9623 12.596C95.5623 12.596 96.1023 12.458 96.5823 12.182C97.0743 11.906 97.4583 11.516 97.7343 11.012C98.0223 10.496 98.1663 9.902 98.1663 9.23C98.1663 8.546 98.0223 7.958 97.7343 7.466C97.4583 6.962 97.0743 6.572 96.5823 6.296C96.1023 6.02 95.5623 5.882 94.9623 5.882C94.3503 5.882 93.8043 6.02 93.3243 6.296C92.8443 6.572 92.4603 6.962 92.1723 7.466C91.8843 7.958 91.7403 8.546 91.7403 9.23C91.7403 9.902 91.8843 10.496 92.1723 11.012C92.4603 11.516 92.8443 11.906 93.3243 12.182C93.8043 12.458 94.3503 12.596 94.9623 12.596ZM98.2203 14V11.426L98.3283 9.212L98.1483 6.998V0.643999H99.8763V14H98.2203Z" fill="#392C72"/>
</svg>
